<svg id="Layer_1" data-name="Layer 1" xmlns="http://www.w3.org/2000/svg" width="200" height="86" viewBox="0 0 200 86"><defs><style>.cls-1{fill:#ef4e23;}.cls-2{fill:none;}.cls-3{fill:#9e3223;}.cls-4{fill:#fff;}.cls-5{fill:#9e8858;}</style></defs><title>Artboard 1</title><path class="cls-1" d="M199,37.65s-12.2-10.55-22.37-9.2a36.4,36.4,0,0,0-14.93,5.39,9.38,9.38,0,0,0-2.94-4.16c-3.17-2.69-8-4-10.09-3.31-2.58.85-6.54,4.71-5.25,9.34.5,1.81,2.28,4.37,4.16,6.72-2.39-.69-4.91-1-6.83-.08-4.63,2.14-7.22,6.39-7.3,8.08a7.15,7.15,0,0,0,.85,3,10.92,10.92,0,0,0,2.7,3.57l.47.36a44.44,44.44,0,0,1-4.28,1.6s1.24,9.43,6.53,14c2.25,2,10,6.73,21.64,6.59s15.85-.15,19.26,2c0,0-1.6-9.2-6.2-16a3.35,3.35,0,0,0,1.5-.07,4.2,4.2,0,0,0,2.69-2.06c.75-1.38.73-3.23,0-5.66a10.91,10.91,0,0,0-2.73-4.76,39.56,39.56,0,0,0,7-4.72C191.77,40.85,195,38.17,199,37.65Z"/><path class="cls-1" d="M59,51.45c-.08-3-.65-7.74-3.16-11.06-1.7-2.24-8-8.21-19.1-10.56S21.61,26.61,18.83,24c0,0-.92,15,6.16,21.7l.69.64A36.28,36.28,0,0,0,16,48C6.66,51,1,64.91,1,64.91c3.7-.25,7.59.48,16.35,2.6a3.61,3.61,0,0,0-.22.44,2.72,2.72,0,0,0,0,2.06,2,2,0,0,0,.44,2.49,2.07,2.07,0,0,0,1.84.5,2.7,2.7,0,0,0,2.52,0A2.84,2.84,0,0,0,23,72.09a2.47,2.47,0,0,0,.79-.23,2.93,2.93,0,0,0,1.22-1,2,2,0,0,0,.14-.25,2.5,2.5,0,0,0,.52-.19,6,6,0,0,0,.19,2.5,4.22,4.22,0,0,0,2.21,2.62,3.11,3.11,0,0,0,2.22.34l.08.09c.83.94,2.22,2.49,4.27,2.45.27,0,.58,0,.9,0,1.32.09,3.69.25,5.13-2.23a4,4,0,0,0,1.06.75l.31.42c.87,1.19,2,2.67,3.51,3a5.4,5.4,0,0,0,1.23.13A7.1,7.1,0,0,0,49.47,80a7.35,7.35,0,0,0,3.64-3.23,4.52,4.52,0,0,0,2.68-2.92c.93-2.45,1.61-5.29-1.51-8.45A5.78,5.78,0,0,0,57.46,64c2.88-2.51,5-7.09,3.53-10.13A6.87,6.87,0,0,0,59,51.45Z"/><path class="cls-2" d="M151.79,54.73l-.14.06h.1S151.77,54.75,151.79,54.73Z"/><path class="cls-3" d="M199,37.65s-12.2-10.55-22.37-9.2a36.4,36.4,0,0,0-14.93,5.39,9.38,9.38,0,0,0-2.94-4.16c-3.17-2.69-8-4-10.09-3.31-2.58.85-6.54,4.71-5.25,9.34.5,1.81,2.28,4.37,4.16,6.72-2.39-.69-4.91-1-6.83-.08-4.63,2.14-7.22,6.39-7.3,8.08a7.15,7.15,0,0,0,.85,3,10.92,10.92,0,0,0,2.7,3.57l.47.36a44.44,44.44,0,0,1-4.28,1.6s1.24,9.43,6.53,14c2.25,2,10,6.73,21.64,6.59s15.85-.15,19.26,2c0,0-1.6-9.2-6.2-16a3.35,3.35,0,0,0,1.5-.07,4.2,4.2,0,0,0,2.69-2.06c.75-1.38.73-3.23,0-5.66a10.91,10.91,0,0,0-2.73-4.76,39.56,39.56,0,0,0,7-4.72C191.77,40.85,195,38.17,199,37.65Zm-15.3-6.76a42,42,0,0,0-3.82,6.84c2.56-.41,8.1-.76,8.1-.76.67-3.09,2.64-3.69,2.64-3.69-1.16.94-1.71,3.7-1.71,3.7a19.11,19.11,0,0,1,6.33.59c-1,.08-2.54.89-4.44,2.08s-6.77,4.5-6.77,4.5c-.6-.31-3.24-2-4.43-2.78a8.43,8.43,0,0,0,.3-2.11c2.84-.63,5.27-1.21,5.27-1.21s-2.38.1-5.32.5a3,3,0,0,0-.17-.62,5.81,5.81,0,0,0-.64-1.18A17.89,17.89,0,0,1,183.7,30.89ZM167,32.69a33.17,33.17,0,0,0-1.53,4.82c-.43.24-.82.48-1.16.69A30.35,30.35,0,0,1,167,32.69Zm-4.73,7.06c-.25.25-.5.53-.76.83.14-.85.3-1.79.46-2.82,0-.13,0-.26.05-.39A27.49,27.49,0,0,1,164,33.66,29.57,29.57,0,0,0,162.3,39.75ZM142.47,59c2.06.62,6.15,1.65,6.15,1.65A7.65,7.65,0,0,1,150,59.35c-.16.58-.29,1.16-.4,1.73l-.27.24.2.08c0,.29-.1.58-.14.87-4.35-1.78-11.46-3.77-11.46-3.77s.27-.09.82-.31A8.44,8.44,0,0,0,142.47,59Zm9.32-4.29s0,.05,0,.07h-.1Zm0,21.32a9.22,9.22,0,0,1-3.66-1.62c-.26-1.13-2.22-8.81-2.22-8.81.23,2,.42,8.28.42,8.28s1.5.92.15.28a17.09,17.09,0,0,1-5.71-3.92c-2.7-2.64-4.84-9.4-5.07-10.39l-.29-.12.69-.57s8.12,2.44,9.66,2.73a27.23,27.23,0,0,1,3.5,1.29,14.58,14.58,0,0,0,.43,5.69,5.21,5.21,0,0,0,3.64,3.8,5.78,5.78,0,0,0,1.71.16c.14,2,.24,3.82.24,3.82S153.81,76.38,151.82,76.05Zm4.72.73c0-.65-.33-2.33-.62-4a7.16,7.16,0,0,0,1.6-.48c.3,2.26.63,4.92.63,4.92A4.7,4.7,0,0,1,156.54,76.78Zm20.37-3.89c-1.5,0-3.67,1.79-3.67,1.79a19.11,19.11,0,0,1,4.52,4.46c-.86-.6-2.53-.92-4.75-1.2s-8.09-.81-8.09-.81c-.35-.8-1.88-5.63-1.88-5.63l-.71-.31c.29.57,1.64,6.32,1.64,6.32-2.22-.28-4.57-.44-4.57-.44-.15-.65-.67-3.24-1.06-5.19a10.42,10.42,0,0,0,2.91-2.47c.09-.11.19-.23.28-.36,3.62,1.89,8.14,4.08,8.14,4.08a65,65,0,0,0-6.76-4.33l-.87-.46c.17-.26.33-.53.49-.81l2.41,1.19c3.19-2.13,8.13-2.06,8.13-2.06a42.19,42.19,0,0,0-7.3,2.87c2.25,1.31,6.75,4.55,6.75,4.55C175,72.11,176.91,72.89,176.91,72.89Zm0-14.56c1.13,3.6.23,5.05-1.49,5.54a5.89,5.89,0,0,1-2.68-.43,46.89,46.89,0,0,1-8.27-3.69,7.81,7.81,0,0,1-2.3-2.8l0-.05c-.28-.52-.5-1-.65-1.22a10.58,10.58,0,0,1,.43,1.14.65.65,0,0,1,0,.13,12.1,12.1,0,0,1-1,9.84c-.15.25-.3.5-.47.74s-.34.47-.52.69a9.28,9.28,0,0,1-2,1.84c-.23.15-.47.29-.7.41a6,6,0,0,1-1.66.58,5.41,5.41,0,0,1-.68.07,4.63,4.63,0,0,1-1.18-.11c-2.13-.5-3-3.43-2.8-7.09q0-.47.09-.93c.06-.45.13-.9.21-1.36a23.82,23.82,0,0,1,.62-2.49c.12-.41.26-.81.41-1.22a23.32,23.32,0,0,1,1.35-3c.09-.17.19-.33.28-.49a18.8,18.8,0,0,1,1.51-2.25c.19-.24.39-.49.6-.73-.47.13-.89.25-1.3.38A33.23,33.23,0,0,0,151.51,53,22.24,22.24,0,0,0,148,54.82l-2.09,1.33-.1.06-1.36.85a9,9,0,0,1-1.29.2,7.1,7.1,0,0,1-1.86-.07,6.81,6.81,0,0,1-1.74-.55,8.63,8.63,0,0,1-4.36-6.13c.05-.95,2.22-4.7,6.31-6.58,2.42-1.12,6.42.24,9.28,1.54l1.08.51.69.35c.58.3,1,.55,1.31.71l.31.18-.21-.22c-.19-.19-.48-.5-.86-.91s-.52-.56-.83-.9l-.8-.89c-2.43-2.74-5.73-6.75-6.36-9-1-3.73,2.45-6.68,4.13-7.23s9.65,1.59,11,6.84a6.55,6.55,0,0,1,.1,2.63c-.31,2-.6,3.61-.87,5-.08.42-.16.82-.24,1.19s-.18.81-.26,1.16c-.48,2.08-.84,3-1,3.14h-.07a16,16,0,0,1-1-2.19c-.13-.33-.27-.68-.42-1s-.21-.5-.32-.75a21.49,21.49,0,0,0-1.1-2.2l-.2-.32a10.08,10.08,0,0,0-.69-1,5.51,5.51,0,0,0-2.24-1.78c-.67-.26.27,1.22,1.34,3l.63,1c.13.23.27.46.39.68.23.4.44.78.61,1.14s.23.51.31.73l.06.15a9.14,9.14,0,0,1,.27,1c.2.92.08,1.44-.46,1.69-.12-.05-.19,0-.19.07a3.84,3.84,0,0,1-1.15.09c-3.35-.13,1.14,1.41,2.75,2.13.89.4,1.48,1.62,1.94,3.15.22.76.42,1.59.61,2.44,0,.21.09.42.14.64s.15.67.22,1c.45,2,1,1.33,1.06-.76,0-.15,0-.32,0-.49a20.78,20.78,0,0,0-.17-2.31c-.07-.51-.15-1-.26-1.59-.4-1.93,3.79.21,5.46,1.66l.31.29c1,1,1.88.46,1.18-.58a4.27,4.27,0,0,0-1.34-1.19c-.79-.49-1.54-.91-2.18-1.28-1.18-.85-2.17-1.59-1.93-1.87.08-.07.2-.18.37-.31.32-.24.77-.52,1.22-.81l.21-.14a6.76,6.76,0,0,0,1.17-.9A56.38,56.38,0,0,1,170.59,44l.48-.23.43-.2a2,2,0,0,0,0,.24.62.62,0,0,0-.14.23.58.58,0,0,0,.13.6.56.56,0,0,0,.7.1.35.35,0,0,0,.13-.08.6.6,0,0,0,0-.84.62.62,0,0,0-.29-.15,3.07,3.07,0,0,0-.05-.34l.52-.23.1.27a.66.66,0,0,0,1,.78.58.58,0,0,0,.17-.29.66.66,0,0,0-.15-.65.58.58,0,0,0-.35-.19v-.08l0-.21.9-.38.06.14h0a.58.58,0,0,0-.1.69.46.46,0,0,0,.09.15.53.53,0,0,0,.26.15.6.6,0,0,0,.57-.14.59.59,0,0,0,0-.83.6.6,0,0,0-.29-.16.79.79,0,0,0-.06-.22l.48-.2.25-.11a.29.29,0,0,1,0,.09.5.5,0,0,0,.7.72.51.51,0,0,0,0-.71.49.49,0,0,0-.39-.14l0-.11c.84-.46.73-.82-.28-.62l-.13,0-.11-.26a.52.52,0,0,0,0-.54l-.06-.09a.53.53,0,0,0-.75,0,.59.59,0,0,0-.14.3.51.51,0,0,0,.13.45.57.57,0,0,0,.36.16l.06.15-1,.38v-.28a.6.6,0,0,0-.1-.66.41.41,0,0,0-.11-.07.56.56,0,0,0-.73.05,1.25,1.25,0,0,0-.08.12.58.58,0,0,0,.07.72.6.6,0,0,0,.38.17l0,.16-.82.35-.19-.27a.65.65,0,0,0-.13-.73.6.6,0,0,0-.33-.18.64.64,0,0,0-.56.13l0,0a.66.66,0,0,0,0,.94.64.64,0,0,0,.68.17l.08.13-.92.42-.18-.22a.58.58,0,0,0-.1-.66.6.6,0,0,0-.84,0,.59.59,0,0,0,0,.83.56.56,0,0,0,.53.16l.12.12c-2.2,1-5.05,2.5-8.44,4.43l0,0-1.1.64c-2.25,1.3,1.74-2.54,1.47-3.33s-2.19,2.06-3.52,3.14c-.1,0-.15,0-.11-.18a18.6,18.6,0,0,1,2.23-3.82c.29-.42.6-.84.91-1.24s.66-.83,1-1.19l.56-.59.33-.31a9.17,9.17,0,0,1,1-.72c2.8-1.79,10.24-5.69,12.7-2a3.28,3.28,0,0,1,.38.72.88.88,0,0,1,.07.23,2.48,2.48,0,0,1,0,.83,14.29,14.29,0,0,1-1.9,5.17c-.15.27-.31.54-.47.81-.29.47-.59.93-.91,1.37l-.57.76a9.3,9.3,0,0,1-3.19,2.79,16.71,16.71,0,0,1-4.59.05L165,50.46h-.19l.23.07,2.35.71c1.17.36,2.55.8,3.7,1.19l.5.17a8.93,8.93,0,0,1,2.54,1.3A8.4,8.4,0,0,1,176.93,58.33Zm-3.47-6.86-.29-.13A14.16,14.16,0,0,0,175.52,49l.79.85S175.09,50.54,173.46,51.47Zm3.86-2.28c-.21-.23-.61-.6-1.11-1,.31-.42.61-.86.89-1.31l1.74,1.65A4.87,4.87,0,0,1,177.32,49.19Zm.33-3.26a19.8,19.8,0,0,0,1.77-4C181,43.1,183.54,45,183.54,45c-1.9,1.19-3.82,2.56-3.82,2.56C179.41,47.36,178.59,46.7,177.65,45.93Z"/><path class="cls-3" d="M59,51.45c-.08-3-.65-7.74-3.16-11.06-1.7-2.24-8-8.21-19.1-10.56S21.61,26.61,18.83,24c0,0-.92,15,6.16,21.7l.69.64A36.28,36.28,0,0,0,16,48C6.66,51,1,64.91,1,64.91c3.7-.25,7.59.48,16.35,2.6a3.61,3.61,0,0,0-.22.44,2.72,2.72,0,0,0,0,2.06,2,2,0,0,0,.44,2.49,2.07,2.07,0,0,0,1.84.5,2.7,2.7,0,0,0,2.52,0A2.84,2.84,0,0,0,23,72.09a2.47,2.47,0,0,0,.79-.23,2.93,2.93,0,0,0,1.22-1,2,2,0,0,0,.14-.25,2.5,2.5,0,0,0,.52-.19,6,6,0,0,0,.19,2.5,4.22,4.22,0,0,0,2.21,2.62,3.11,3.11,0,0,0,2.22.34l.08.09c.83.94,2.22,2.49,4.27,2.45.27,0,.58,0,.9,0,1.32.09,3.69.25,5.13-2.23a4,4,0,0,0,1.06.75l.31.42c.87,1.19,2,2.67,3.51,3a5.4,5.4,0,0,0,1.23.13A7.1,7.1,0,0,0,49.47,80a7.35,7.35,0,0,0,3.64-3.23,4.52,4.52,0,0,0,2.68-2.92c.93-2.45,1.61-5.29-1.51-8.45A5.78,5.78,0,0,0,57.46,64c2.88-2.51,5-7.09,3.53-10.13A6.87,6.87,0,0,0,59,51.45ZM43.12,61.14a2,2,0,0,1-1.8,1.64c-.7,0-.27-1.06-1.31-1.33a1.55,1.55,0,0,0-.31-.06,5.17,5.17,0,0,0-.72-.07,11.87,11.87,0,0,0-2.66.29c-.28.06-.56.12-.86.2A40.41,40.41,0,0,0,31.52,63l-1.25.46-.45.17a22.2,22.2,0,0,0-3.33,1.79c-.95.6-1.87,1.25-2.73,1.88-.61.46-1.18.9-1.69,1.31-1.47,1.18-2.44,2.08-2.44,2.08-.59.58-1.24.59-.3-.53a14.61,14.61,0,0,1,1.94-1.71C21.8,68,22.4,67.6,23,67.15l1.5-1.07.76-.55L26,65c.22-.16.47-.31.73-.47a40.82,40.82,0,0,1,6.64-2.93c.86-.28,1.72-.52,2.55-.73l.63-.16c1.7-.42,3.24-.7,4.33-.88C43,59.5,43.26,60.26,43.12,61.14Zm-18.3,7.48a.67.67,0,0,1-.92-.17c-.14-.27.06-.64.43-.83a.58.58,0,1,1,.49,1ZM23,70.07c-.34.15-.69.1-.79-.11s.1-.52.44-.67.69-.1.79.11S23.32,69.92,23,70.07Zm-2.73,1.1c-.11-.21.08-.52.41-.68s.7-.14.8.08-.08.52-.41.68S20.35,71.39,20.25,71.17Zm-1.13-1.7c-.23-.09-.31-.44-.17-.79s.44-.54.67-.45.3.44.17.79S19.35,69.57,19.12,69.47Zm2.33-1.88c-.24.33-.61.47-.83.32s-.18-.56.06-.89a1.12,1.12,0,0,1,.35-.31.46.46,0,0,1,.49,0,.35.35,0,0,1,.11.15A.85.85,0,0,1,21.45,67.59Zm1-1.37c-.18-.2-.06-.58.25-.85s.71-.34.88-.14a.41.41,0,0,1,.06.38.43.43,0,0,1-.05.13,1,1,0,0,1-.26.35C23,66.36,22.62,66.42,22.45,66.22Zm-1.86-8.9h0a3.68,3.68,0,0,1-.11.86c-3.47.82-7.14,1.6-7.14,1.6A61.29,61.29,0,0,1,20.59,57.32ZM29,73.76c-1.55-.78-1.58-2.64-1-4.5.12-.42.27-.83.43-1.24a14.51,14.51,0,0,1,.75-1.53l.09-.14c1.37-2.26,4.1-2.43,4.93-2.45a1.76,1.76,0,0,0,.31,0,6.15,6.15,0,0,0,1.51-.72l1.65-1a2.38,2.38,0,0,1,.61-.27,1.09,1.09,0,0,1,1,.22l.11.12a33.56,33.56,0,0,0-2,2.73A9.86,9.86,0,0,1,40.4,62.8c.19,0-.24.81-.73,1.61s-.85,1.33-1,1.61c.56-.79,3.1-3.09,3.53-2.87a3.11,3.11,0,0,1,.52,1.1l.32.94c.39,1.15.8,2.27,1.06,1.88s-.09-1.63-.33-2.45c-.14-.44-.23-.78-.13-.83s.39.1.73.31.73.48,1,.67a8.3,8.3,0,0,1-.77-.88,8.54,8.54,0,0,1-.74-1.11,1.14,1.14,0,0,1-.18-.58c0-.19.41-.5.85-.81.76-.52,1.74-1,1.58-1a10,10,0,0,1-1.33.37h0l-.46.06a.72.72,0,0,1-.53-.12l0,0c-.17-.27.88-1.17,1.57-1.83.48-.45.78-.79.4-.73a.8.8,0,0,0-.21.05c-1,.28-2.58,1.45-3,1.2S42,56,41.67,56.74s-.54,1.58-.72,1.08-1.53-2.26-1.23-1.73a5.91,5.91,0,0,1,.2,2c0,.18,0,.35,0,.48s0,.39-.08.33a12.47,12.47,0,0,0-2.63-.43h0c-.54-.05-.9-.07-.75,0a3.86,3.86,0,0,1,.64.26l.08,0c.68.33,1.5.83,1.4,1s-1.06.33-1.79.55h0a1.86,1.86,0,0,1-.48.05c-.66,0-1.44-.32-2.16-.3-.93,0-2.85,1.77-5.38,2.16a6.09,6.09,0,0,1-1.27.07,6.94,6.94,0,0,1-.81-.08A7.2,7.2,0,0,1,25,61.76a6.08,6.08,0,0,1-.77-.37c-1.28-.71-2.07-1.72-1.88-2.5a8.87,8.87,0,0,0,.2-1.21,3.93,3.93,0,0,0,0-.85A2.42,2.42,0,0,0,22.3,56a2.76,2.76,0,0,1-.19-2.78c.77-2.26,2.18-1.68,2.82-2.24l.09-.08a2.78,2.78,0,0,0,.22-.29c.34-.55-.29-.39,0-1a2.65,2.65,0,0,1,1.84-1.23l.2,0a5.69,5.69,0,0,1,.83-.06,9.26,9.26,0,0,1,2.9.52h0c.44.18,1.28.47,2.31,2.64l.08.16c.15.33.3.7.46,1.11a5.91,5.91,0,0,0,.38.8,5.48,5.48,0,0,0,.47.74,7.19,7.19,0,0,0,.66.77A9.31,9.31,0,0,0,38,56.87,9,9,0,0,1,36.53,55c-.14-.25-.29-.51-.44-.79-.26-.49-.51-1-.75-1.58l-.12-.3c-.17-.41-.32-.82-.46-1.25a5.66,5.66,0,0,1-.18-.74s0-.06,0-.09a3.58,3.58,0,0,1,.14-1.9,3.29,3.29,0,0,1,.62-1c.32-.36.6-.57.61-.68a5.64,5.64,0,0,1,.81-3.16,2.83,2.83,0,0,1,.51-.53,3.62,3.62,0,0,1,.54-.36l.17-.07c1.83-.85,3.67.31,5.12,1.53.74.63,1.92-.46,3.56.57,1.88,1.19,1.74,2.89.91,4.61-.12.25-.26.51-.41.77s-.32.52-.5.78-.56.8-.85,1.19q-.26.35-.51.66l-.12.16c-.21.28-.42.54-.6.8s-.33.44-.46.64-.21.33-.3.49a3.86,3.86,0,0,0-.2.41,4.34,4.34,0,0,0-.19,3.46v0l.06-.17a16.25,16.25,0,0,1,1.42-3.13c.12-.21.26-.44.4-.66.23-.37.47-.75.75-1.14l.07-.09c.05-.07.11-.14.16-.22l.47-.61c.27-.33.54-.67.85-1l.21-.23c.21-.22.42-.43.63-.61A8.07,8.07,0,0,1,49.3,50,4.24,4.24,0,0,1,54,49.72c.56.32.78,1.82,1.41,2.05a9.41,9.41,0,0,1,1.22.51,6.08,6.08,0,0,1,2.29,1.9,4.86,4.86,0,0,1,.33.54c1,1.94-.59,5.61-3.06,7.77s-5.73.17-6.91-.29a4.69,4.69,0,0,0-1.63-.2,9.48,9.48,0,0,0-1.1.08l-.38.07c-.45.08-.77.19-.79.29s0,.25.2.41a3.93,3.93,0,0,0,1.12.79c.73.36,1.74-.57,5.26,2.29s2.85,5,2,7.22-2,1.57-2.37,2.3a5.29,5.29,0,0,1-5.59,3c-1.34-.31-2.76-3.13-3.2-3.23s-2.19-1.08-1.18-4A13.86,13.86,0,0,0,42,65.84c0-.35-.07-.67-.1-.94-.08-.6-.15-1-.15-1a2.85,2.85,0,0,0-1.42,1.92,4.74,4.74,0,0,0-.13.91,5.74,5.74,0,0,0,0,.81,13,13,0,0,1-1,7.17c-1,2.42-2.85,1.66-4.62,1.7s-3-2.43-3.75-2.7h0a.86.86,0,0,0-.21,0C30.05,73.65,30,74.27,29,73.76ZM49.6,37.91a16.33,16.33,0,0,1,4.55,4.76c1.14,1.72,1.8,4.64,2.15,7A3.36,3.36,0,0,0,54.93,48a6,6,0,0,0-4.85-.51,5.24,5.24,0,0,0,0-1.32,4.53,4.53,0,0,0-1.44-2.58c.44-2.37,1.09-5.4,1.09-5.4S48.46,37,49.6,37.91Zm-7.81-4.12s1.36.58,3.19,1.3a9,9,0,0,1,3.1,2.24c0,.66.06,3.68.1,5.92L47.84,43l-.16-.1a5,5,0,0,0-3.63-.69h0a9.11,9.11,0,0,0-3.32-1.82C41,38,41.79,33.79,41.79,33.79ZM22.68,39.07a42.84,42.84,0,0,0,7.57-1c-1.84-1.66-5.39-5.55-5.39-5.55-2.8,1.25-4.44.14-4.44.14,1.42.32,3.89-.84,3.89-.84a17.54,17.54,0,0,1-3.31-5,12.11,12.11,0,0,0,4.25,2.09c2.05.72,7.51,2.46,7.51,2.46.15.79.53,5.48.53,5.48l.61.44c-.15-.58-.15-6.07-.15-6.07,2,.72,4.25,1.37,4.25,1.37,0,1-.23,7.08-.23,7.08l.68.51c0-.8.76-7.44.76-7.44a4.76,4.76,0,0,1,1.44.72c-.17,1-.38,5-.48,6.84a5,5,0,0,0-3.29.52,6.16,6.16,0,0,0-.57.35l-.61-.51c-3-2.59-8.34-6.69-8.34-6.69a60.66,60.66,0,0,0,5.46,5.36c.82.7,1.8,1.5,2.86,2.35a4.86,4.86,0,0,0-.52.6c-2.06-1.55-4.3-3.31-4.3-3.31C27.36,40.19,22.68,39.07,22.68,39.07ZM2.53,63.67c3.34-7,8.28-12.53,15.23-14.49a44.1,44.1,0,0,1,6.45-1.35,4.17,4.17,0,0,0-.64.87,2.43,2.43,0,0,0-.31.82,4.34,4.34,0,0,0-3,3.09,4.54,4.54,0,0,0,.07,3.83l-1.64.35c-2.61-2.64-7.31-3.67-7.31-3.67a42.65,42.65,0,0,1,6.36,4.23c-2.37.7-7.27,2.66-7.27,2.66-2-2.35-3.93-2-3.93-2,1.42.32,3.14,2.43,3.14,2.43a17.85,17.85,0,0,0-5.15,3.07,12.13,12.13,0,0,1,4.74,0c2.16.24,7.83,1,7.83,1,.48-.65,2.86-4.72,2.86-4.72l.45-.07c0,.09.05.18.07.28-.7,1.22-2.56,5.06-2.56,5.06l1.78.23a3.05,3.05,0,0,0-.59.6c-.08.12-.15.24-.22.36A77.77,77.77,0,0,0,2.53,63.67Z"/><path class="cls-4" d="M160.8,21.87c-.74,0-17.92.24-36.61,13.73a81.08,81.08,0,0,0-23.72-34L99.65,1l-.82.65a82.72,82.72,0,0,0-23.71,34C56.42,22.11,39.24,21.87,38.5,21.87H36.25l1.08,2a184.08,184.08,0,0,1,17.9,60.11l.14,1.17h88.56l.14-1.17A184.11,184.11,0,0,1,162,23.83l1.08-2Z"/><path class="cls-5" d="M143.43,84.55H55.87l-.08-.68a184.82,184.82,0,0,0-18-60.31l-.62-1.13h1.3a50.64,50.64,0,0,1,11.66,1.88A75.43,75.43,0,0,1,75.39,36.5C82.82,15.25,99,2.22,99.18,2.09l.47-.37.47.37A80.33,80.33,0,0,1,123.91,36.5a75.43,75.43,0,0,1,25.23-12.19,50.71,50.71,0,0,1,11.66-1.88h1.3l-.62,1.13a184.82,184.82,0,0,0-18,60.31ZM57.23,83h84.84a189.23,189.23,0,0,1,17.44-59c-4.46.35-19.74,2.38-35.53,14.32l-.85.64-.33-1A79.14,79.14,0,0,0,99.66,3.68C96.93,6,82.94,18.63,76.5,38l-.33,1-.85-.64A74.05,74.05,0,0,0,49.83,25.8a56.13,56.13,0,0,0-10-1.77A189.13,189.13,0,0,1,57.23,83Z"/><path class="cls-1" d="M115.08,45.71l.09.22a2.62,2.62,0,0,0,1.44-2,.94.94,0,0,0-.27-.68.9.9,0,0,0-.65-.28h0a.91.91,0,0,0-1,.93.88.88,0,0,0,.65.89h0v0c.11.3-.1.57-.32.85"/><path class="cls-1" d="M124.68,51.78a2.58,2.58,0,0,0-.83-1.82,4.69,4.69,0,0,0-1.18-.92h0c-.48-.28-.94-.48-1.35-.67a4.06,4.06,0,0,1-1.39-.82,1.75,1.75,0,0,1-.4-1.07,1.71,1.71,0,0,1,1.93-1.56h0a1.92,1.92,0,0,1,2,1.42l.7,0c0-.33.13-1.34.15-1.67h0c0-.11,0-.22,0-.28a14.43,14.43,0,0,0-2.67-.31h0c-3,0-4.92,1.34-4.92,3.43v.12A2.57,2.57,0,0,0,118,50a10.75,10.75,0,0,0,1.37.82l.11.06c1.25.64,2.16,1.11,2.21,2.27A2.12,2.12,0,0,1,119.42,55h0a2.23,2.23,0,0,1-2.36-1.65l-.73-.07a1,1,0,0,1,0,.18h0c0,.43,0,1.71.07,2.05a12.6,12.6,0,0,0,2.69.26h0a7,7,0,0,0,4.16-1.1,3.35,3.35,0,0,0,1.42-2.81s0,0,0,0S124.68,51.8,124.68,51.78Z"/><path class="cls-1" d="M103.15,55.8v-.54a1.35,1.35,0,0,1-.84-1.27c0-2.68,0-7.33,0-7.33a3.38,3.38,0,0,1,.13-1A1.14,1.14,0,0,1,103,45l.14-.08v-.51H100v.48c.56.23.84.8.84,1.72v4h0v.15l-4-4.59a4.34,4.34,0,0,0-3.4-1.78H91.85V45a1.51,1.51,0,0,1,.86,1.59l0,6.8a4,4,0,0,1-.11,1.08,1.18,1.18,0,0,1-.49.6l-.26.13v.45h3.1v-.48a1.41,1.41,0,0,1-.34-.19,2.09,2.09,0,0,1-.44-1.6V47.66l5.1,5.9c1.44,1.64,1.83,2.12,2.63,2.22l0,0h1.23Z"/><path class="cls-1" d="M102.63,55.8Z"/><path class="cls-1" d="M111.71,50.47h-.31V51a.89.89,0,0,1,.47.86v1a1.75,1.75,0,0,1-.59,1.55,2.54,2.54,0,0,1-1.33.38,2.51,2.51,0,0,1-1.51-.5,2.56,2.56,0,0,1-.86-1.44,17.13,17.13,0,0,1-.21-3.05c0-2.37.89-4.79,3.09-4.85a2.57,2.57,0,0,1,2.49,1.8h1l.19-1.65a6.33,6.33,0,0,0-3.56-.85h-.31A6.38,6.38,0,0,0,105.38,46a6,6,0,0,0-1.64,4.18,5.73,5.73,0,0,0,1.54,4,5.2,5.2,0,0,0,4,1.71h.3a10.88,10.88,0,0,0,2.29-.29,14.65,14.65,0,0,1,2.21-.41h.54v-2.9a2,2,0,0,1,.19-1.07.71.71,0,0,1,.28-.22v-.5Z"/><path class="cls-1" d="M90.26,45.17A.71.71,0,0,1,90.6,45v-.55H86.5V45a.72.72,0,0,1,.36.19,1.61,1.61,0,0,1,.27,1.09v7.63a1.54,1.54,0,0,1-.29,1.1.64.64,0,0,1-.46.17,1.2,1.2,0,0,1-1.16-.66l-4-6.25c.33-.35.63-.68.93-1,1.21-1.34,2.17-2.4,3-2.4h.16v-.48H84.28A3.54,3.54,0,0,0,82,45.45c-.45.46-2,2-3.47,3.34l0,0V47.69c0-1.81,0-2.73.35-2.78l.3-.06v-.54h-.09l-1.84,0c-.62,0-1.24,0-1.83,0h-.1v.45l0,.09h.09q.26,0,.3.18a24.82,24.82,0,0,1,.15,3.74,52.87,52.87,0,0,1-.17,6c0,.1-.12.15-.33.19h-.09v.55h.1c1.13,0,2.39,0,3.66,0h.11V55L78.73,55c-.1,0-.15-.18-.15-.43v-.16a.68.68,0,0,0,0-.12c0-.2-.06-.71-.06-1.57V50.33l.54-.44A33.39,33.39,0,0,1,82.37,55l-.26.06v.52h8.47v-.45a.72.72,0,0,1-.33-.21A1.69,1.69,0,0,1,90,53.87l0-7.64A1.7,1.7,0,0,1,90.26,45.17Z"/><path class="cls-1" d="M139.59,68.15c0-2.7,0-7.24,0-7.24a3.54,3.54,0,0,1,.13-1,1.2,1.2,0,0,1,.51-.59l.15-.08v-.51h-2.72v.48c.58.23.87.81.87,1.73v4h0v.64L134,60.45a4.44,4.44,0,0,0-3.48-1.79H129.3v.55a1.5,1.5,0,0,1,.87,1.59v6.85a4,4,0,0,1-.11,1.08,1.2,1.2,0,0,1-.51.6,1.3,1.3,0,0,1-.26.14v.45H132v-.48a1.17,1.17,0,0,1-.34-.2c-.3-.24-.45-.77-.45-1.6V61.86l5.28,5.94c1.47,1.65,1.88,2,2.69,2.15l0,0h1.21v-.54a1.38,1.38,0,0,1-.85-1.28"/><path class="cls-1" d="M110.75,69.37a.71.71,0,0,1-.34-.21,1.64,1.64,0,0,1-.26-1.08V60.39a1.7,1.7,0,0,1,.26-1.06.73.73,0,0,1,.35-.22v-.54h-4.2v.54a.81.81,0,0,1,.37.2,1.55,1.55,0,0,1,.28,1.09l0,7.69a1.49,1.49,0,0,1-.3,1.1.77.77,0,0,1-.35.18v.45h4.2Z"/><path class="cls-1" d="M116.79,69.38a.8.8,0,0,1-.35-.21,1.69,1.69,0,0,1-.26-1.07l0-7.69a1.79,1.79,0,0,1,.25-1.07.89.89,0,0,1,.36-.22v-.54h-4.2v.54a.92.92,0,0,1,.37.2,1.63,1.63,0,0,1,.27,1.09v7.69a1.49,1.49,0,0,1-.3,1.1.76.76,0,0,1-.36.18v.45h4.21Z"/><path class="cls-1" d="M82.14,69.09a3.55,3.55,0,0,1-.94-1.56l-3.76-9.19h-1l-3.6,9a4,4,0,0,1-1.31,1.94v.51h2.67v-.52a.63.63,0,0,1-.22-.09.6.6,0,0,1-.27-.57,5.13,5.13,0,0,1,.25-1.3l.16-.42a6.5,6.5,0,0,1,3.56,0l.5,1.21a2.84,2.84,0,0,0,3,1.75h1.43v-.5a1.7,1.7,0,0,1-.47-.2m-7.57-3.26,1.33-3.4,1.4,3.39a6.49,6.49,0,0,0-2.73,0"/><path class="cls-1" d="M105.62,69.14a3.46,3.46,0,0,1-.94-1.56l-3.76-9.19h-1l-3.6,9a4,4,0,0,1-1.3,1.94v.51h2.66V69.3a.73.73,0,0,1-.22-.09.6.6,0,0,1-.27-.56,5.68,5.68,0,0,1,.25-1.31l.17-.42a6.5,6.5,0,0,1,3.56,0l.5,1.21s.49,1.74,3,1.75h1.42v-.5a1.65,1.65,0,0,1-.46-.2m-7.57-3.26,1.33-3.4,1.4,3.39a6.49,6.49,0,0,0-2.73,0"/><path class="cls-1" d="M128.2,69.19a3.52,3.52,0,0,1-.94-1.56l-3.76-9.19h-1l-3.6,9a4,4,0,0,1-1.3,2v.5h2.66v-.52a.91.91,0,0,1-.22-.09.6.6,0,0,1-.28-.57,5.53,5.53,0,0,1,.25-1.3l.17-.42a6.5,6.5,0,0,1,3.56,0l.5,1.21a2.82,2.82,0,0,0,3,1.74h1.43v-.5a1.9,1.9,0,0,1-.47-.2m-7.57-3.27L122,62.53l1.4,3.38a6.85,6.85,0,0,0-2.73,0"/><path class="cls-1" d="M94.9,58.25v.53a.93.93,0,0,1,.22.08.61.61,0,0,1,.27.57,5.05,5.05,0,0,1-.25,1.3l-1.9,4.86-3-7.35H89.11l-2.9,7.34s-1.37-4.51-1.7-5.61a2.89,2.89,0,0,0-3-1.74H80.13v.5a1.53,1.53,0,0,1,.46.2,3.51,3.51,0,0,1,1,1.56l3.13,9.19h1l3-7.47,3,7.48h1l3.6-9a4.06,4.06,0,0,1,1.31-2v-.5Z"/><path class="cls-1" d="M70.55,59.15a.78.78,0,0,1,.36-.21v-.55H66.7v.55a.76.76,0,0,1,.37.19,1.57,1.57,0,0,1,.28,1.09V63H63V60.21a1.78,1.78,0,0,1,.26-1.07.81.81,0,0,1,.35-.22v-.54H59.43v.54a.76.76,0,0,1,.37.2,1.55,1.55,0,0,1,.28,1.09l0,7.69a1.54,1.54,0,0,1-.29,1.1.87.87,0,0,1-.36.18v.45h4.2v-.45a.76.76,0,0,1-.34-.21A1.64,1.64,0,0,1,63,67.89v-4h4.32v4A1.57,1.57,0,0,1,67,69a1.1,1.1,0,0,1-.36.18v.45h4.2v-.46a.74.74,0,0,1-.35-.21,1.69,1.69,0,0,1-.26-1.07l0-7.69A1.74,1.74,0,0,1,70.55,59.15Z"/><path class="cls-5" d="M83.83,76.77V78.1h-.38V75.15h.38v1.31h1.93V75.15h.38V78.1h-.38V76.77Z"/><path class="cls-5" d="M87.5,75.15V78.1h-.38V75.15Z"/><path class="cls-5" d="M88.48,75.15h.38v2.64h1.88v.31H88.48Z"/><path class="cls-5" d="M93,78.15a1.58,1.58,0,0,1-1.7-1.52A1.6,1.6,0,0,1,93,75.09a1.54,1.54,0,1,1,0,3.06Zm0-2.75a1.24,1.24,0,0,0-1.31,1.22A1.32,1.32,0,1,0,93,75.4Z"/><path class="cls-5" d="M95.58,78.1h-.17v-.44h.44V78c0,.34-.17.5-.53.57l-.06-.14C95.5,78.39,95.6,78.28,95.58,78.1Z"/><path class="cls-5" d="M98.5,76.77V78.1h-.38V75.15h.38v1.31h1.93V75.15h.38V78.1h-.38V76.77Z"/><path class="cls-5" d="M104.88,78.1h-.41l-.39-.78h-1.83l-.39.78h-.39l1.53-3h.35Zm-1.71-2.59L102.4,77h1.53Z"/><path class="cls-5" d="M107.56,75.14h.32l.91,2.47,1-2.46h.4l-1.2,3h-.32l-.92-2.4-.92,2.4h-.32l-1.19-3h.41l1,2.46Z"/><path class="cls-5" d="M114,78.1h-.4l-.4-.78h-1.82l-.4.78h-.38l1.52-3h.36Zm-1.7-2.59L111.48,77H113Z"/><path class="cls-5" d="M115,75.15V78.1h-.38V75.15Z"/><path class="cls-5" d="M116.42,75.15V78.1H116V75.15Z"/><path class="cls-5" d="M90.37,35.15h-2v1h1.75v.29H88.42v1h2v.29H88.05V34.86h2.32Z"/><path class="cls-5" d="M92.74,36.12c.71.14,1,.37,1,.81s-.46.8-1.09.8a2.07,2.07,0,0,1-1.32-.45L91.6,37a1.6,1.6,0,0,0,1.1.4c.43,0,.72-.2.72-.48s-.17-.42-.84-.54-1.08-.36-1.08-.83.45-.77,1.06-.77a1.83,1.83,0,0,1,1.13.34l-.21.25a1.57,1.57,0,0,0-.93-.31c-.42,0-.69.21-.69.47S92,36,92.74,36.12Z"/><path class="cls-5" d="M96,37.69h-.37V35.15H94.54v-.29h2.53v.29H96Z"/><path class="cls-5" d="M99,36.29v-.42h.42v.42Z"/><path class="cls-5" d="M102.08,34.84h.27v2.85H102V35.17l-.61.16-.09-.25Z"/><path class="cls-5" d="M104.16,37.74a1.58,1.58,0,0,1-1-.35l.21-.25a1.22,1.22,0,0,0,.79.31c.58,0,1-.52,1-1.25a1.08,1.08,0,0,1-.91.46c-.66,0-1.12-.37-1.12-.88a1,1,0,0,1,1.15-1,1.25,1.25,0,0,1,.85.29,1.33,1.33,0,0,1,.4,1.1A1.38,1.38,0,0,1,104.16,37.74Zm.08-2.65a.7.7,0,0,0-.77.67c0,.36.32.62.79.62a.72.72,0,0,0,.8-.64C105.06,35.37,104.72,35.09,104.24,35.09Z"/><path class="cls-5" d="M106.41,34.86h1.85v.29h-1.53l-.07.91a1.68,1.68,0,0,1,.63-.13c.63,0,1.12.33,1.12.87s-.48.94-1.15.94a1.78,1.78,0,0,1-1.15-.45l.24-.23a1.42,1.42,0,0,0,.91.39c.46,0,.78-.27.78-.63s-.33-.6-.8-.6a1.47,1.47,0,0,0-.67.16l-.25-.14Z"/><path class="cls-5" d="M110.22,37.74a1.47,1.47,0,1,1,1.36-1.47A1.37,1.37,0,0,1,110.22,37.74Zm0-2.64a1.06,1.06,0,0,0-1,1.17,1.08,1.08,0,0,0,1,1.18,1.06,1.06,0,0,0,1-1.17A1.07,1.07,0,0,0,110.22,35.1Z"/><path class="cls-1" d="M141.42,59.18a.9.9,0,0,1,.14-.2.77.77,0,0,1,.21-.14.65.65,0,0,1,.5,0,.77.77,0,0,1,.21.14.9.9,0,0,1,.14.2.7.7,0,0,1,0,.52.9.9,0,0,1-.14.2.6.6,0,0,1-.21.14.65.65,0,0,1-.5,0,.6.6,0,0,1-.21-.14.9.9,0,0,1-.14-.2.7.7,0,0,1,0-.52Zm.11.48a.39.39,0,0,0,.11.17.52.52,0,0,0,.17.12.57.57,0,0,0,.42,0,.66.66,0,0,0,.17-.12.5.5,0,0,0,.11-.17.62.62,0,0,0,0-.44.5.5,0,0,0-.11-.17.66.66,0,0,0-.17-.12.57.57,0,0,0-.42,0,.52.52,0,0,0-.17.12.39.39,0,0,0-.11.17.63.63,0,0,0,0,.44Zm.53-.6a.28.28,0,0,1,.2.06.2.2,0,0,1,.07.16.18.18,0,0,1-.06.15.24.24,0,0,1-.14,0l.21.34h-.12l-.21-.33h-.12v.33h-.12v-.76Zm-.05.34h.07l.07,0a.08.08,0,0,0,0,0,.12.12,0,0,0,0-.07.14.14,0,0,0,0-.06l0,0-.06,0h-.21v.24Z"/></svg>